/* XPM */
static char * dirty_xpm[] = {
"22 16 11 1",
" 	c None",
".	c #FFFFFF",
"+	c #000200",
"@	c #1C1E1B",
"#	c #070C08",
"$	c #050805",
"%	c #0B0D0A",
"&	c #10120F",
"*	c #414141",
"=	c #1D221E",
"-	c #151A16",
"     ................ ",
"     .+@++#++$+$++%&. ",
"     .%.*.*.*.*.*.*+. ",
"     .+*.*.*.*.*.*.+. ",
"     .+.*.*.*.*.*.*+. ",
"     .+*.*.*.*.*.*.+. ",
"     .+.*.*.*.*.*.*+. ",
"     .+*.*.*.*.*.*.+. ",
"     .+.*.*.*.*.*.*+. ",
"     .+*.*.*.*.*.*.+. ",
"     .+.*.*.*.*.*.*+. ",
"     .+*.*.*.*.*.*.+. ",
"     .$.*.*.*.*.*.*+. ",
"     .+*.*.*.*.*.*.+. ",
"     .+=+++$++++++-$. ",
"     ................ "};
